<svg width="30" height="30" viewBox="0 0 30 30" fill="none" xmlns="http://www.w3.org/2000/svg">
<path fill-rule="evenodd" clip-rule="evenodd" d="M28 0C29.1046 0 30 0.895431 30 2V14.5H0V2C0 0.895431 0.895431 0 2 0H28ZM9.64971 4.40922C9.29705 4.13641 8.87008 4 8.36882 4C7.86755 4 7.44059 4.13641 7.08792 4.40922C6.73526 4.68425 6.46577 5.08238 6.27946 5.60361C6.09315 6.12706 6 6.75919 6 7.5C6 8.23638 6.09426 8.86518 6.28279 9.38641C6.4691 9.90985 6.7397 10.3091 7.09458 10.5841C7.44724 10.8614 7.87199 11 8.36882 11C8.86565 11 9.2915 10.8614 9.64638 10.5841C9.99905 10.3091 10.2696 9.90985 10.4582 9.38641C10.6445 8.86518 10.7376 8.23638 10.7376 7.5C10.7376 6.75919 10.6445 6.12706 10.4582 5.60361C10.2719 5.08238 10.0024 4.68425 9.64971 4.40922ZM7.21102 5.45057C7.48605 4.97148 7.87199 4.73194 8.36882 4.73194C8.6993 4.73194 8.98209 4.83951 9.2172 5.05466C9.45009 5.2698 9.62864 5.58365 9.75285 5.9962C9.87706 6.40875 9.93916 6.91001 9.93916 7.5C9.93916 8.38498 9.80053 9.06923 9.52328 9.55276C9.24603 10.0385 8.86121 10.2814 8.36882 10.2814C8.04055 10.2814 7.75998 10.1727 7.52709 9.95532C7.29198 9.73796 7.11232 9.4219 6.98811 9.00713C6.86169 8.59236 6.79848 8.08999 6.79848 7.5C6.79848 6.6128 6.93599 5.92966 7.21102 5.45057ZM14.2243 4C14.7256 4 15.1526 4.13641 15.5052 4.40922C15.8579 4.68425 16.1274 5.08238 16.3137 5.60361C16.5 6.12706 16.5932 6.75919 16.5932 7.5C16.5932 8.23637 16.5 8.86518 16.3137 9.38641C16.1252 9.90985 15.8546 10.3091 15.5019 10.5841C15.147 10.8614 14.7212 11 14.2243 11C13.7275 11 13.3028 10.8614 12.9501 10.5841C12.5952 10.3091 12.3246 9.90985 12.1383 9.38641C11.9498 8.86518 11.8555 8.23638 11.8555 7.5C11.8555 6.75919 11.9487 6.12706 12.135 5.60361C12.3213 5.08238 12.5908 4.68425 12.9434 4.40922C13.2961 4.13641 13.7231 4 14.2243 4ZM14.2243 4.73194C13.7275 4.73194 13.3416 4.97148 13.0665 5.45057C12.7915 5.92966 12.654 6.6128 12.654 7.5C12.654 8.08999 12.7172 8.59236 12.8436 9.00713C12.9678 9.4219 13.1475 9.73796 13.3826 9.95532C13.6155 10.1727 13.8961 10.2814 14.2243 10.2814C14.7167 10.2814 15.1015 10.0385 15.3788 9.55276C15.656 9.06923 15.7947 8.38498 15.7947 7.5C15.7947 6.91001 15.7326 6.40874 15.6084 5.9962C15.4842 5.58365 15.3056 5.2698 15.0727 5.05466C14.8376 4.83951 14.5548 4.73194 14.2243 4.73194ZM18.8638 5.14116C18.7463 5.02361 18.6054 4.96483 18.4413 4.96483C18.3304 4.96483 18.2306 4.99144 18.1419 5.04468C18.0509 5.10013 17.9789 5.17332 17.9256 5.26426C17.8702 5.3552 17.8424 5.45501 17.8424 5.56369C17.8424 5.72782 17.9012 5.86866 18.0188 5.98622C18.1363 6.10377 18.2772 6.16255 18.4413 6.16255C18.6054 6.16255 18.7463 6.10377 18.8638 5.98622C18.9814 5.86866 19.0402 5.72782 19.0402 5.56369C19.0402 5.39956 18.9814 5.25871 18.8638 5.14116ZM18.8638 8.58793C18.7463 8.47037 18.6054 8.4116 18.4413 8.4116C18.3304 8.4116 18.2306 8.43821 18.1419 8.49145C18.0509 8.5469 17.9789 8.62009 17.9256 8.71103C17.8702 8.80196 17.8424 8.90178 17.8424 9.01046C17.8424 9.17459 17.9012 9.31543 18.0188 9.43299C18.1363 9.55054 18.2772 9.60932 18.4413 9.60932C18.6054 9.60932 18.7463 9.55054 18.8638 9.43299C18.9814 9.31543 19.0402 9.17459 19.0402 9.01046C19.0402 8.84632 18.9814 8.70548 18.8638 8.58793ZM22.5975 4C22.9879 4 23.3395 4.07763 23.6522 4.23289C23.9649 4.38815 24.2156 4.60108 24.4041 4.87167C24.5926 5.14227 24.6958 5.45057 24.7135 5.79658H23.915C23.884 5.48828 23.7443 5.23321 23.4958 5.03137C23.2452 4.83175 22.9458 4.73194 22.5975 4.73194C22.3181 4.73194 22.0697 4.79737 21.8523 4.92823C21.6327 5.05909 21.4608 5.23875 21.3366 5.46721C21.2102 5.69788 21.147 5.95849 21.147 6.24905C21.147 6.54626 21.2124 6.81131 21.3433 7.0442C21.4719 7.27931 21.6494 7.46451 21.8756 7.59981C22.1018 7.73511 22.3602 7.80387 22.6508 7.80608C22.8593 7.8083 23.0733 7.77614 23.2929 7.7096C23.5125 7.64528 23.6932 7.5621 23.8352 7.46008L24.6071 7.55323L24.1945 10.9068H20.6546V10.1749L23.5025 10.1749L23.742 8.1654H23.7021C23.5624 8.2763 23.3872 8.36835 23.1764 8.44154C22.9657 8.51473 22.7462 8.55133 22.5177 8.55133C22.1007 8.55133 21.7292 8.45152 21.4032 8.2519C21.0749 8.0545 20.8176 7.7839 20.6313 7.44011C20.4428 7.09632 20.3485 6.70374 20.3485 6.26236C20.3485 5.82763 20.4461 5.43948 20.6413 5.09791C20.8342 4.75856 21.1004 4.49018 21.4398 4.29278C21.7791 4.09759 22.165 4 22.5975 4ZM28 30C29.1046 30 30 29.1046 30 28V15.5H0V28C0 29.1046 0.895431 30 2 30H28ZM21.0638 25.5908C21.4165 25.8636 21.8434 26 22.3447 26C22.846 26 23.2729 25.8636 23.6256 25.5908C23.9783 25.3158 24.2477 24.9176 24.4341 24.3964C24.6204 23.8729 24.7135 23.2408 24.7135 22.5C24.7135 21.7636 24.6193 21.1348 24.4307 20.6136C24.2444 20.0901 23.9738 19.6909 23.6189 19.4159C23.2663 19.1386 22.8415 19 22.3447 19C21.8479 19 21.422 19.1386 21.0671 19.4159C20.7145 19.6909 20.4439 20.0901 20.2553 20.6136C20.069 21.1348 19.9759 21.7636 19.9759 22.5C19.9759 23.2408 20.069 23.8729 20.2553 24.3964C20.4417 24.9176 20.7111 25.3158 21.0638 25.5908ZM23.5025 24.5494C23.2275 25.0285 22.8415 25.2681 22.3447 25.2681C22.0142 25.2681 21.7314 25.1605 21.4963 24.9453C21.2634 24.7302 21.0849 24.4164 20.9607 24.0038C20.8365 23.5913 20.7744 23.09 20.7744 22.5C20.7744 21.615 20.913 20.9308 21.1902 20.4472C21.4675 19.9615 21.8523 19.7186 22.3447 19.7186C22.673 19.7186 22.9535 19.8273 23.1864 20.0447C23.4215 20.262 23.6012 20.5781 23.7254 20.9929C23.8518 21.4076 23.915 21.91 23.915 22.5C23.915 23.3872 23.7775 24.0703 23.5025 24.5494ZM16.4892 26C15.9879 26 15.561 25.8636 15.2083 25.5908C14.8556 25.3158 14.5861 24.9176 14.3998 24.3964C14.2135 23.8729 14.1204 23.2408 14.1204 22.5C14.1204 21.7636 14.2135 21.1348 14.3998 20.6136C14.5884 20.0901 14.859 19.6909 15.2116 19.4159C15.5665 19.1386 15.9924 19 16.4892 19C16.986 19 17.4108 19.1386 17.7634 19.4159C18.1183 19.6909 18.3889 20.0901 18.5752 20.6136C18.7637 21.1348 18.858 21.7636 18.858 22.5C18.858 23.2408 18.7648 23.8729 18.5785 24.3964C18.3922 24.9176 18.1227 25.3158 17.7701 25.5908C17.4174 25.8636 16.9905 26 16.4892 26ZM16.4892 25.2681C16.986 25.2681 17.3719 25.0285 17.647 24.5494C17.922 24.0703 18.0595 23.3872 18.0595 22.5C18.0595 21.91 17.9963 21.4076 17.8699 20.9929C17.7457 20.5781 17.566 20.262 17.3309 20.0447C17.098 19.8273 16.8174 19.7186 16.4892 19.7186C15.9968 19.7186 15.612 19.9615 15.3347 20.4472C15.0575 20.9308 14.9188 21.615 14.9188 22.5C14.9188 23.09 14.9809 23.5913 15.1052 24.0038C15.2294 24.4164 15.4079 24.7302 15.6408 24.9453C15.8759 25.1605 16.1587 25.2681 16.4892 25.2681ZM11.8497 24.8588C11.9672 24.9764 12.1081 25.0352 12.2722 25.0352C12.3831 25.0352 12.4829 25.0086 12.5716 24.9553C12.6626 24.8999 12.7347 24.8267 12.7879 24.7357C12.8433 24.6448 12.8711 24.545 12.8711 24.4363C12.8711 24.2722 12.8123 24.1313 12.6947 24.0138C12.5772 23.8962 12.4363 23.8375 12.2722 23.8375C12.1081 23.8375 11.9672 23.8962 11.8497 24.0138C11.7321 24.1313 11.6733 24.2722 11.6733 24.4363C11.6733 24.6004 11.7321 24.7413 11.8497 24.8588ZM11.8497 21.4121C11.9672 21.5296 12.1081 21.5884 12.2722 21.5884C12.3831 21.5884 12.4829 21.5618 12.5716 21.5086C12.6626 21.4531 12.7347 21.3799 12.7879 21.289C12.8433 21.198 12.8711 21.0982 12.8711 20.9895C12.8711 20.8254 12.8123 20.6846 12.6947 20.567C12.5772 20.4495 12.4363 20.3907 12.2722 20.3907C12.1081 20.3907 11.9672 20.4495 11.8497 20.567C11.7321 20.6846 11.6733 20.8254 11.6733 20.9895C11.6733 21.1537 11.7321 21.2945 11.8497 21.4121ZM8.11597 26C7.7256 26 7.37405 25.9224 7.06131 25.7671C6.74857 25.6119 6.49794 25.3989 6.30941 25.1283C6.12088 24.8577 6.01774 24.5494 6 24.2034H6.79848C6.82953 24.5117 6.96926 24.7668 7.21768 24.9686C7.46831 25.1683 7.76774 25.2681 8.11597 25.2681C8.39544 25.2681 8.64385 25.2026 8.86122 25.0718C9.0808 24.9409 9.25269 24.7612 9.3769 24.5328C9.50333 24.3021 9.56654 24.0415 9.56654 23.7509C9.56654 23.4537 9.50111 23.1887 9.37025 22.9558C9.2416 22.7207 9.06416 22.5355 8.83793 22.4002C8.61169 22.2649 8.3533 22.1961 8.06274 22.1939C7.85425 22.1917 7.64021 22.2239 7.42063 22.2904C7.20105 22.3547 7.02028 22.4379 6.87833 22.5399L6.10646 22.4468L6.51901 19.0932H10.0589V19.8251H7.21103L6.97148 21.8346H7.01141C7.15114 21.7237 7.32636 21.6317 7.53707 21.5585C7.74778 21.4853 7.96736 21.4487 8.19582 21.4487C8.6128 21.4487 8.98431 21.5485 9.31036 21.7481C9.63862 21.9455 9.89591 22.2161 10.0822 22.5599C10.2708 22.9037 10.365 23.2963 10.365 23.7376C10.365 24.1724 10.2674 24.5605 10.0722 24.9021C9.87928 25.2414 9.61312 25.5098 9.27376 25.7072C8.93441 25.9024 8.54848 26 8.11597 26Z" fill="#37352F"/>
</svg>
